<svg width="1200" height="800" viewBox="0 0 1200 800" fill="none" xmlns="http://www.w3.org/2000/svg">
  <rect width="1200" height="800" rx="48" fill="#0B1120"/>
  <circle cx="300" cy="160" r="150" fill="#F59E0B" fill-opacity="0.16"/>
  <circle cx="940" cy="620" r="220" fill="#22C55E" fill-opacity="0.16"/>
  <rect x="150" y="560" width="900" height="84" rx="42" fill="#1E293B"/>
  <circle cx="390" cy="320" r="88" fill="#F8C9A0"/>
  <path d="M316 442C332 389 354 354 390 354C426 354 448 389 464 442" fill="#14B8A6"/>
  <circle cx="600" cy="290" r="96" fill="#F1D0B2"/>
  <path d="M522 438C540 378 568 340 600 340C632 340 660 378 678 438" fill="#38BDF8"/>
  <circle cx="830" cy="330" r="86" fill="#E9B892"/>
  <path d="M754 442C771 390 794 354 830 354C866 354 889 390 906 442" fill="#F97316"/>
  <rect x="336" y="450" width="108" height="152" rx="28" fill="#334155"/>
  <rect x="546" y="448" width="108" height="154" rx="28" fill="#334155"/>
  <rect x="756" y="450" width="108" height="152" rx="28" fill="#334155"/>
  <circle cx="390" cy="304" r="30" fill="#0F172A"/>
  <circle cx="600" cy="274" r="30" fill="#0F172A"/>
  <circle cx="830" cy="300" r="30" fill="#0F172A"/>
</svg>